<?xml version="1.0" encoding="UTF-8" standalone="no"?>
<!DOCTYPE svg PUBLIC "-//W3C//DTD SVG 1.1//EN"
 "http://www.w3.org/Graphics/SVG/1.1/DTD/svg11.dtd">
<!-- Generated by graphviz version 5.0.0 (20220707.1540)
 -->
<!-- Title: dependencies Pages: 1 -->
<svg width="2717pt" height="391pt"
 viewBox="0.00 0.00 2717.00 390.80" xmlns="http://www.w3.org/2000/svg" xmlns:xlink="http://www.w3.org/1999/xlink">
<g id="graph0" class="graph" transform="scale(1 1) rotate(0) translate(4 386.8)">
<title>dependencies</title>
<polygon fill="white" stroke="transparent" points="-4,4 -4,-386.8 2713,-386.8 2713,4 -4,4"/>
<text text-anchor="middle" x="1354.5" y="-8.2" font-family="sans-serif" font-size="14.00">dependencies</text>
<g id="clust1" class="cluster">
<title>cluster_AppModule</title>
<polygon fill="none" stroke="black" stroke-dasharray="1,5" points="8,-32.8 8,-301.8 518,-301.8 518,-32.8 8,-32.8"/>
</g>
<g id="clust3" class="cluster">
<title>cluster_AppModule_imports</title>
<polygon fill="none" stroke="black" points="16,-40.8 16,-233.8 368,-233.8 368,-40.8 16,-40.8"/>
</g>
<g id="clust6" class="cluster">
<title>cluster_AppModule_providers</title>
<polygon fill="none" stroke="black" points="376,-181.8 376,-233.8 510,-233.8 510,-181.8 376,-181.8"/>
</g>
<g id="clust13" class="cluster">
<title>cluster_EntityModule</title>
<polygon fill="none" stroke="black" stroke-dasharray="1,5" points="526,-97.8 526,-165.8 744,-165.8 744,-97.8 526,-97.8"/>
</g>
<g id="clust15" class="cluster">
<title>cluster_EntityModule_imports</title>
<polygon fill="none" stroke="black" points="640,-105.8 640,-157.8 736,-157.8 736,-105.8 640,-105.8"/>
</g>
<g id="clust16" class="cluster">
<title>cluster_EntityModule_exports</title>
<polygon fill="none" stroke="black" points="534,-105.8 534,-157.8 632,-157.8 632,-105.8 534,-105.8"/>
</g>
<g id="clust19" class="cluster">
<title>cluster_GatewayModule</title>
<polygon fill="none" stroke="black" stroke-dasharray="1,5" points="1550,-249.8 1550,-374.8 1676,-374.8 1676,-249.8 1550,-249.8"/>
</g>
<g id="clust22" class="cluster">
<title>cluster_GatewayModule_exports</title>
<polygon fill="none" stroke="black" points="1560,-314.8 1560,-366.8 1666,-366.8 1666,-314.8 1560,-314.8"/>
</g>
<g id="clust25" class="cluster">
<title>cluster_JobModule</title>
<polygon fill="none" stroke="black" stroke-dasharray="1,5" points="2352,-173.8 2352,-241.8 2701,-241.8 2701,-173.8 2352,-173.8"/>
</g>
<g id="clust28" class="cluster">
<title>cluster_JobModule_exports</title>
<polygon fill="none" stroke="black" points="2490,-181.8 2490,-233.8 2693,-233.8 2693,-181.8 2490,-181.8"/>
</g>
<g id="clust30" class="cluster">
<title>cluster_JobModule_providers</title>
<polygon fill="none" stroke="black" points="2360,-181.8 2360,-233.8 2482,-233.8 2482,-181.8 2360,-181.8"/>
</g>
<g id="clust31" class="cluster">
<title>cluster_ModelsModule</title>
<polygon fill="none" stroke="black" stroke-dasharray="1,5" points="780,-97.8 780,-165.8 1909,-165.8 1909,-97.8 780,-97.8"/>
</g>
<g id="clust34" class="cluster">
<title>cluster_ModelsModule_exports</title>
<polygon fill="none" stroke="black" points="1386,-105.8 1386,-157.8 1901,-157.8 1901,-105.8 1386,-105.8"/>
</g>
<g id="clust36" class="cluster">
<title>cluster_ModelsModule_providers</title>
<polygon fill="none" stroke="black" points="788,-105.8 788,-157.8 1378,-157.8 1378,-105.8 788,-105.8"/>
</g>
<g id="clust37" class="cluster">
<title>cluster_ServicesModule</title>
<polygon fill="none" stroke="black" stroke-dasharray="1,5" points="526,-173.8 526,-241.8 2344,-241.8 2344,-173.8 526,-173.8"/>
</g>
<g id="clust40" class="cluster">
<title>cluster_ServicesModule_exports</title>
<polygon fill="none" stroke="black" points="1553,-181.8 1553,-233.8 2336,-233.8 2336,-181.8 1553,-181.8"/>
</g>
<g id="clust42" class="cluster">
<title>cluster_ServicesModule_providers</title>
<polygon fill="none" stroke="black" points="534,-181.8 534,-233.8 1545,-233.8 1545,-181.8 534,-181.8"/>
</g>
<g id="clust43" class="cluster">
<title>cluster_UtilitiesModule</title>
<polygon fill="none" stroke="black" stroke-dasharray="1,5" points="1917,-97.8 1917,-165.8 2119,-165.8 2119,-97.8 1917,-97.8"/>
</g>
<g id="clust46" class="cluster">
<title>cluster_UtilitiesModule_exports</title>
<polygon fill="none" stroke="black" points="2031,-105.8 2031,-157.8 2111,-157.8 2111,-105.8 2031,-105.8"/>
</g>
<g id="clust48" class="cluster">
<title>cluster_UtilitiesModule_providers</title>
<polygon fill="none" stroke="black" points="1925,-105.8 1925,-157.8 2023,-157.8 2023,-105.8 1925,-105.8"/>
</g>
<!-- CommandsModule -->
<g id="node1" class="node">
<title>CommandsModule</title>
<polygon fill="#8dd3c7" stroke="black" points="359.83,-225.8 356.83,-229.8 335.83,-229.8 332.83,-225.8 236.17,-225.8 236.17,-189.8 359.83,-189.8 359.83,-225.8"/>
<text text-anchor="middle" x="298" y="-203.6" font-family="Times,serif" font-size="14.00">CommandsModule</text>
</g>
<!-- AppModule -->
<g id="node6" class="node">
<title>AppModule</title>
<polygon fill="#8dd3c7" stroke="black" points="248.66,-293.8 245.66,-297.8 224.66,-297.8 221.66,-293.8 165.34,-293.8 165.34,-257.8 248.66,-257.8 248.66,-293.8"/>
<text text-anchor="middle" x="207" y="-271.6" font-family="Times,serif" font-size="14.00">AppModule</text>
</g>
<!-- CommandsModule&#45;&gt;AppModule -->
<g id="edge1" class="edge">
<title>CommandsModule&#45;&gt;AppModule</title>
<path fill="none" stroke="black" d="M242.58,-226.02C242.58,-226.02 242.58,-247.53 242.58,-247.53"/>
<polygon fill="black" stroke="black" points="239.08,-247.53 242.58,-257.53 246.08,-247.53 239.08,-247.53"/>
</g>
<!-- EntityModule -->
<g id="node2" class="node">
<title>EntityModule</title>
<polygon fill="#8dd3c7" stroke="black" points="117.77,-84.8 114.77,-88.8 93.77,-88.8 90.77,-84.8 24.23,-84.8 24.23,-48.8 117.77,-48.8 117.77,-84.8"/>
<text text-anchor="middle" x="71" y="-62.6" font-family="Times,serif" font-size="14.00">EntityModule</text>
</g>
<!-- EntityModule&#45;&gt;CommandsModule -->
<g id="edge7" class="edge">
<title>EntityModule&#45;&gt;CommandsModule</title>
<path fill="none" stroke="black" d="M91.09,-84.94C91.09,-123.03 91.09,-207.8 91.09,-207.8 91.09,-207.8 226.2,-207.8 226.2,-207.8"/>
<polygon fill="black" stroke="black" points="226.2,-211.3 236.2,-207.8 226.2,-204.3 226.2,-211.3"/>
</g>
<!-- ServicesModule -->
<g id="node4" class="node">
<title>ServicesModule</title>
<polygon fill="#8dd3c7" stroke="black" points="360.48,-149.8 357.48,-153.8 336.48,-153.8 333.48,-149.8 253.52,-149.8 253.52,-113.8 360.48,-113.8 360.48,-149.8"/>
<text text-anchor="middle" x="307" y="-127.6" font-family="Times,serif" font-size="14.00">ServicesModule</text>
</g>
<!-- EntityModule&#45;&gt;ServicesModule -->
<g id="edge25" class="edge">
<title>EntityModule&#45;&gt;ServicesModule</title>
<path fill="none" stroke="black" d="M104.49,-84.91C104.49,-104.14 104.49,-131.8 104.49,-131.8 104.49,-131.8 243.26,-131.8 243.26,-131.8"/>
<polygon fill="black" stroke="black" points="243.26,-135.3 253.26,-131.8 243.26,-128.3 243.26,-135.3"/>
</g>
<!-- EntityModule&#45;&gt;AppModule -->
<g id="edge2" class="edge">
<title>EntityModule&#45;&gt;AppModule</title>
<path fill="none" stroke="black" d="M50.91,-84.98C50.91,-135.83 50.91,-275.8 50.91,-275.8 50.91,-275.8 155.17,-275.8 155.17,-275.8"/>
<polygon fill="black" stroke="black" points="155.17,-279.3 165.17,-275.8 155.17,-272.3 155.17,-279.3"/>
</g>
<!-- JobModule  -->
<g id="node9" class="node">
<title>JobModule </title>
<polygon fill="#fb8072" stroke="black" points="624,-149.8 542,-149.8 542,-113.8 624,-113.8 624,-149.8"/>
<text text-anchor="middle" x="583" y="-127.6" font-family="Times,serif" font-size="14.00">JobModule </text>
</g>
<!-- EntityModule&#45;&gt;JobModule  -->
<g id="edge10" class="edge">
<title>EntityModule&#45;&gt;JobModule </title>
<path fill="none" stroke="black" stroke-dasharray="5,2" d="M77.7,-85.29C77.7,-96.94 77.7,-109.8 77.7,-109.8 77.7,-109.8 583,-109.8 583,-109.8 583,-109.8 583,-110.18 583,-110.18"/>
<polygon fill="black" stroke="black" points="579.5,-103.63 583,-113.63 586.5,-103.63 579.5,-103.63"/>
</g>
<!-- GatewayModule -->
<g id="node10" class="node">
<title>GatewayModule</title>
<polygon fill="#8dd3c7" stroke="black" points="1667.8,-293.8 1664.8,-297.8 1643.8,-297.8 1640.8,-293.8 1558.2,-293.8 1558.2,-257.8 1667.8,-257.8 1667.8,-293.8"/>
<text text-anchor="middle" x="1613" y="-271.6" font-family="Times,serif" font-size="14.00">GatewayModule</text>
</g>
<!-- EntityModule&#45;&gt;GatewayModule -->
<g id="edge11" class="edge">
<title>EntityModule&#45;&gt;GatewayModule</title>
<path fill="none" stroke="black" d="M64.3,-84.87C64.3,-129.58 64.3,-241.8 64.3,-241.8 64.3,-241.8 1614.16,-241.8 1614.16,-241.8 1614.16,-241.8 1614.16,-247.61 1614.16,-247.61"/>
<polygon fill="black" stroke="black" points="1610.66,-247.61 1614.16,-257.61 1617.66,-247.61 1610.66,-247.61"/>
</g>
<!-- ModelsModule -->
<g id="node3" class="node">
<title>ModelsModule</title>
<polygon fill="#8dd3c7" stroke="black" points="237.55,-84.8 234.55,-88.8 213.55,-88.8 210.55,-84.8 136.45,-84.8 136.45,-48.8 237.55,-48.8 237.55,-84.8"/>
<text text-anchor="middle" x="187" y="-62.6" font-family="Times,serif" font-size="14.00">ModelsModule</text>
</g>
<!-- ModelsModule&#45;&gt;ServicesModule -->
<g id="edge26" class="edge">
<title>ModelsModule&#45;&gt;ServicesModule</title>
<path fill="none" stroke="black" d="M230.86,-84.83C230.86,-101.2 230.86,-122.8 230.86,-122.8 230.86,-122.8 243.29,-122.8 243.29,-122.8"/>
<polygon fill="black" stroke="black" points="243.29,-126.3 253.29,-122.8 243.29,-119.3 243.29,-126.3"/>
</g>
<!-- ModelsModule&#45;&gt;AppModule -->
<g id="edge3" class="edge">
<title>ModelsModule&#45;&gt;AppModule</title>
<path fill="none" stroke="black" d="M214.44,-84.98C214.44,-84.98 214.44,-247.51 214.44,-247.51"/>
<polygon fill="black" stroke="black" points="210.94,-247.51 214.44,-257.51 217.94,-247.51 210.94,-247.51"/>
</g>
<!-- AiArtModel  -->
<g id="node15" class="node">
<title>AiArtModel </title>
<polygon fill="#fb8072" stroke="black" points="1601.21,-149.8 1512.79,-149.8 1512.79,-113.8 1601.21,-113.8 1601.21,-149.8"/>
<text text-anchor="middle" x="1557" y="-127.6" font-family="Times,serif" font-size="14.00">AiArtModel </text>
</g>
<!-- ModelsModule&#45;&gt;AiArtModel  -->
<g id="edge17" class="edge">
<title>ModelsModule&#45;&gt;AiArtModel </title>
<path fill="none" stroke="black" stroke-dasharray="5,2" d="M176.12,-84.86C176.12,-89.29 176.12,-92.8 176.12,-92.8 176.12,-92.8 1557,-92.8 1557,-92.8 1557,-92.8 1557,-103.67 1557,-103.67"/>
<polygon fill="black" stroke="black" points="1553.5,-103.67 1557,-113.67 1560.5,-103.67 1553.5,-103.67"/>
</g>
<!-- AiStoryModel  -->
<g id="node16" class="node">
<title>AiStoryModel </title>
<polygon fill="#fb8072" stroke="black" points="1494.39,-149.8 1393.61,-149.8 1393.61,-113.8 1494.39,-113.8 1494.39,-149.8"/>
<text text-anchor="middle" x="1444" y="-127.6" font-family="Times,serif" font-size="14.00">AiStoryModel </text>
</g>
<!-- ModelsModule&#45;&gt;AiStoryModel  -->
<g id="edge18" class="edge">
<title>ModelsModule&#45;&gt;AiStoryModel </title>
<path fill="none" stroke="black" stroke-dasharray="5,2" d="M170.64,-85.01C170.64,-90.35 170.64,-94.8 170.64,-94.8 170.64,-94.8 1444,-94.8 1444,-94.8 1444,-94.8 1444,-103.73 1444,-103.73"/>
<polygon fill="black" stroke="black" points="1440.5,-103.73 1444,-113.73 1447.5,-103.73 1440.5,-103.73"/>
</g>
<!-- CogView2Model  -->
<g id="node17" class="node">
<title>CogView2Model </title>
<polygon fill="#fb8072" stroke="black" points="1893.21,-149.8 1776.79,-149.8 1776.79,-113.8 1893.21,-113.8 1893.21,-149.8"/>
<text text-anchor="middle" x="1835" y="-127.6" font-family="Times,serif" font-size="14.00">CogView2Model </text>
</g>
<!-- ModelsModule&#45;&gt;CogView2Model  -->
<g id="edge19" class="edge">
<title>ModelsModule&#45;&gt;CogView2Model </title>
<path fill="none" stroke="black" stroke-dasharray="5,2" d="M187.07,-84.88C187.07,-86.65 187.07,-87.8 187.07,-87.8 187.07,-87.8 1835,-87.8 1835,-87.8 1835,-87.8 1835,-103.65 1835,-103.65"/>
<polygon fill="black" stroke="black" points="1831.5,-103.65 1835,-113.65 1838.5,-103.65 1831.5,-103.65"/>
</g>
<!-- WomboDreamModel  -->
<g id="node18" class="node">
<title>WomboDreamModel </title>
<polygon fill="#fb8072" stroke="black" points="1758.75,-149.8 1619.25,-149.8 1619.25,-113.8 1758.75,-113.8 1758.75,-149.8"/>
<text text-anchor="middle" x="1689" y="-127.6" font-family="Times,serif" font-size="14.00">WomboDreamModel </text>
</g>
<!-- ModelsModule&#45;&gt;WomboDreamModel  -->
<g id="edge20" class="edge">
<title>ModelsModule&#45;&gt;WomboDreamModel </title>
<path fill="none" stroke="black" stroke-dasharray="5,2" d="M181.59,-84.92C181.59,-87.77 181.59,-89.8 181.59,-89.8 181.59,-89.8 1689,-89.8 1689,-89.8 1689,-89.8 1689,-103.74 1689,-103.74"/>
<polygon fill="black" stroke="black" points="1685.5,-103.74 1689,-113.74 1692.5,-103.74 1685.5,-103.74"/>
</g>
<!-- ServicesModule&#45;&gt;CommandsModule -->
<g id="edge8" class="edge">
<title>ServicesModule&#45;&gt;CommandsModule</title>
<path fill="none" stroke="black" d="M261.68,-149.81C261.68,-149.81 261.68,-179.65 261.68,-179.65"/>
<polygon fill="black" stroke="black" points="258.18,-179.65 261.68,-189.65 265.18,-179.65 258.18,-179.65"/>
</g>
<!-- ServicesModule&#45;&gt;AppModule -->
<g id="edge4" class="edge">
<title>ServicesModule&#45;&gt;AppModule</title>
<path fill="none" stroke="black" d="M253.47,-140.8C238.09,-140.8 225.39,-140.8 225.39,-140.8 225.39,-140.8 225.39,-247.59 225.39,-247.59"/>
<polygon fill="black" stroke="black" points="221.89,-247.59 225.39,-257.59 228.89,-247.59 221.89,-247.59"/>
</g>
<!-- AiStoryService  -->
<g id="node23" class="node">
<title>AiStoryService </title>
<polygon fill="#fb8072" stroke="black" points="2327.82,-225.8 2222.18,-225.8 2222.18,-189.8 2327.82,-189.8 2327.82,-225.8"/>
<text text-anchor="middle" x="2275" y="-203.6" font-family="Times,serif" font-size="14.00">AiStoryService </text>
</g>
<!-- ServicesModule&#45;&gt;AiStoryService  -->
<g id="edge28" class="edge">
<title>ServicesModule&#45;&gt;AiStoryService </title>
<path fill="none" stroke="black" stroke-dasharray="5,2" d="M310.67,-150C310.67,-155.83 310.67,-160.8 310.67,-160.8 310.67,-160.8 2275,-160.8 2275,-160.8 2275,-160.8 2275,-179.76 2275,-179.76"/>
<polygon fill="black" stroke="black" points="2271.5,-179.76 2275,-189.76 2278.5,-179.76 2271.5,-179.76"/>
</g>
<!-- AmqpService  -->
<g id="node24" class="node">
<title>AmqpService </title>
<polygon fill="#fb8072" stroke="black" points="2204.48,-225.8 2107.52,-225.8 2107.52,-189.8 2204.48,-189.8 2204.48,-225.8"/>
<text text-anchor="middle" x="2156" y="-203.6" font-family="Times,serif" font-size="14.00">AmqpService </text>
</g>
<!-- ServicesModule&#45;&gt;AmqpService  -->
<g id="edge29" class="edge">
<title>ServicesModule&#45;&gt;AmqpService </title>
<path fill="none" stroke="black" stroke-dasharray="5,2" d="M302.5,-150.04C302.5,-157.23 302.5,-163.8 302.5,-163.8 302.5,-163.8 2156,-163.8 2156,-163.8 2156,-163.8 2156,-179.65 2156,-179.65"/>
<polygon fill="black" stroke="black" points="2152.5,-179.65 2156,-189.65 2159.5,-179.65 2152.5,-179.65"/>
</g>
<!-- CogView2Service  -->
<g id="node25" class="node">
<title>CogView2Service </title>
<polygon fill="#fb8072" stroke="black" points="2090.14,-225.8 1967.86,-225.8 1967.86,-189.8 2090.14,-189.8 2090.14,-225.8"/>
<text text-anchor="middle" x="2029" y="-203.6" font-family="Times,serif" font-size="14.00">CogView2Service </text>
</g>
<!-- ServicesModule&#45;&gt;CogView2Service  -->
<g id="edge30" class="edge">
<title>ServicesModule&#45;&gt;CogView2Service </title>
<path fill="none" stroke="black" stroke-dasharray="5,2" d="M294.34,-149.99C294.34,-158.08 294.34,-165.8 294.34,-165.8 294.34,-165.8 1991.5,-165.8 1991.5,-165.8 1991.5,-165.8 1991.5,-179.74 1991.5,-179.74"/>
<polygon fill="black" stroke="black" points="1988,-179.74 1991.5,-189.74 1995,-179.74 1988,-179.74"/>
</g>
<!-- DalleMiniService  -->
<g id="node26" class="node">
<title>DalleMiniService </title>
<polygon fill="#fb8072" stroke="black" points="1949.52,-225.8 1830.48,-225.8 1830.48,-189.8 1949.52,-189.8 1949.52,-225.8"/>
<text text-anchor="middle" x="1890" y="-203.6" font-family="Times,serif" font-size="14.00">DalleMiniService </text>
</g>
<!-- ServicesModule&#45;&gt;DalleMiniService  -->
<g id="edge31" class="edge">
<title>ServicesModule&#45;&gt;DalleMiniService </title>
<path fill="none" stroke="black" stroke-dasharray="5,2" d="M286.17,-149.87C286.17,-159.26 286.17,-168.8 286.17,-168.8 286.17,-168.8 1861.92,-168.8 1861.92,-168.8 1861.92,-168.8 1861.92,-179.67 1861.92,-179.67"/>
<polygon fill="black" stroke="black" points="1858.42,-179.67 1861.92,-189.67 1865.42,-179.67 1858.42,-179.67"/>
</g>
<!-- HelpService  -->
<g id="node27" class="node">
<title>HelpService </title>
<polygon fill="#fb8072" stroke="black" points="1812.19,-225.8 1723.81,-225.8 1723.81,-189.8 1812.19,-189.8 1812.19,-225.8"/>
<text text-anchor="middle" x="1768" y="-203.6" font-family="Times,serif" font-size="14.00">HelpService </text>
</g>
<!-- ServicesModule&#45;&gt;HelpService  -->
<g id="edge32" class="edge">
<title>ServicesModule&#45;&gt;HelpService </title>
<path fill="none" stroke="black" stroke-dasharray="5,2" d="M278.01,-149.93C278.01,-160.51 278.01,-171.8 278.01,-171.8 278.01,-171.8 1741.14,-171.8 1741.14,-171.8 1741.14,-171.8 1741.14,-179.38 1741.14,-179.38"/>
<polygon fill="black" stroke="black" points="1737.64,-179.38 1741.14,-189.38 1744.64,-179.38 1737.64,-179.38"/>
</g>
<!-- WomboDreamService  -->
<g id="node28" class="node">
<title>WomboDreamService </title>
<polygon fill="#fb8072" stroke="black" points="1705.17,-225.8 1560.83,-225.8 1560.83,-189.8 1705.17,-189.8 1705.17,-225.8"/>
<text text-anchor="middle" x="1633" y="-203.6" font-family="Times,serif" font-size="14.00">WomboDreamService </text>
</g>
<!-- ServicesModule&#45;&gt;WomboDreamService  -->
<g id="edge33" class="edge">
<title>ServicesModule&#45;&gt;WomboDreamService </title>
<path fill="none" stroke="black" stroke-dasharray="5,2" d="M269.84,-149.86C269.84,-161.24 269.84,-173.8 269.84,-173.8 269.84,-173.8 1581.01,-173.8 1581.01,-173.8 1581.01,-173.8 1581.01,-179.61 1581.01,-179.61"/>
<polygon fill="black" stroke="black" points="1577.51,-179.61 1581.01,-189.61 1584.51,-179.61 1577.51,-179.61"/>
</g>
<!-- UtilitiesModule -->
<g id="node5" class="node">
<title>UtilitiesModule</title>
<polygon fill="#8dd3c7" stroke="black" points="360.16,-84.8 357.16,-88.8 336.16,-88.8 333.16,-84.8 255.84,-84.8 255.84,-48.8 360.16,-48.8 360.16,-84.8"/>
<text text-anchor="middle" x="308" y="-62.6" font-family="Times,serif" font-size="14.00">UtilitiesModule</text>
</g>
<!-- UtilitiesModule&#45;&gt;ServicesModule -->
<g id="edge27" class="edge">
<title>UtilitiesModule&#45;&gt;ServicesModule</title>
<path fill="none" stroke="black" d="M325.44,-84.91C325.44,-84.91 325.44,-103.79 325.44,-103.79"/>
<polygon fill="black" stroke="black" points="321.94,-103.79 325.44,-113.79 328.94,-103.79 321.94,-103.79"/>
</g>
<!-- UtilitiesModule&#45;&gt;AppModule -->
<g id="edge5" class="edge">
<title>UtilitiesModule&#45;&gt;AppModule</title>
<path fill="none" stroke="black" d="M290.56,-84.84C290.56,-97.36 290.56,-111.8 290.56,-111.8 290.56,-111.8 219.91,-111.8 219.91,-111.8 219.91,-111.8 219.91,-247.62 219.91,-247.62"/>
<polygon fill="black" stroke="black" points="216.41,-247.62 219.91,-257.62 223.41,-247.62 216.41,-247.62"/>
</g>
<!-- Collage  -->
<g id="node35" class="node">
<title>Collage </title>
<polygon fill="#fb8072" stroke="black" points="2102.54,-149.8 2039.46,-149.8 2039.46,-113.8 2102.54,-113.8 2102.54,-149.8"/>
<text text-anchor="middle" x="2071" y="-127.6" font-family="Times,serif" font-size="14.00">Collage </text>
</g>
<!-- UtilitiesModule&#45;&gt;Collage  -->
<g id="edge40" class="edge">
<title>UtilitiesModule&#45;&gt;Collage </title>
<path fill="none" stroke="black" stroke-dasharray="5,2" d="M360.28,-60.8C652.56,-60.8 2071,-60.8 2071,-60.8 2071,-60.8 2071,-103.52 2071,-103.52"/>
<polygon fill="black" stroke="black" points="2067.5,-103.52 2071,-113.52 2074.5,-103.52 2067.5,-103.52"/>
</g>
<!-- BotGateway -->
<g id="node7" class="node">
<title>BotGateway</title>
<ellipse fill="#fdb462" stroke="black" cx="443" cy="-207.8" rx="59.11" ry="18"/>
<text text-anchor="middle" x="443" y="-203.6" font-family="Times,serif" font-size="14.00">BotGateway</text>
</g>
<!-- BotGateway&#45;&gt;AppModule -->
<g id="edge6" class="edge">
<title>BotGateway&#45;&gt;AppModule</title>
<path fill="none" stroke="black" d="M423.23,-224.96C423.23,-246.82 423.23,-281.8 423.23,-281.8 423.23,-281.8 258.69,-281.8 258.69,-281.8"/>
<polygon fill="black" stroke="black" points="258.69,-278.3 248.69,-281.8 258.69,-285.3 258.69,-278.3"/>
</g>
<!-- BotGateway&#45;&gt;GatewayModule -->
<g id="edge13" class="edge">
<title>BotGateway&#45;&gt;GatewayModule</title>
<path fill="none" stroke="black" d="M462.77,-225.07C462.77,-243.42 462.77,-269.8 462.77,-269.8 462.77,-269.8 1548.3,-269.8 1548.3,-269.8"/>
<polygon fill="black" stroke="black" points="1548.3,-273.3 1558.3,-269.8 1548.3,-266.3 1548.3,-273.3"/>
</g>
<!-- JobModule -->
<g id="node8" class="node">
<title>JobModule</title>
<polygon fill="#8dd3c7" stroke="black" points="727.5,-149.8 724.5,-153.8 703.5,-153.8 700.5,-149.8 648.5,-149.8 648.5,-113.8 727.5,-113.8 727.5,-149.8"/>
<text text-anchor="middle" x="688" y="-127.6" font-family="Times,serif" font-size="14.00">JobModule</text>
</g>
<!-- JobModule&#45;&gt;EntityModule -->
<g id="edge9" class="edge">
<title>JobModule&#45;&gt;EntityModule</title>
<path fill="none" stroke="black" d="M688,-113.63C688,-109.75 688,-106.8 688,-106.8 688,-106.8 37.51,-106.8 37.51,-106.8 37.51,-106.8 37.51,-94.93 37.51,-94.93"/>
<polygon fill="black" stroke="black" points="41.01,-94.93 37.51,-84.93 34.01,-94.93 41.01,-94.93"/>
</g>
<!-- JobResolver  -->
<g id="node12" class="node">
<title>JobResolver </title>
<polygon fill="#fb8072" stroke="black" points="2685.21,-225.8 2596.79,-225.8 2596.79,-189.8 2685.21,-189.8 2685.21,-225.8"/>
<text text-anchor="middle" x="2641" y="-203.6" font-family="Times,serif" font-size="14.00">JobResolver </text>
</g>
<!-- JobModule&#45;&gt;JobResolver  -->
<g id="edge14" class="edge">
<title>JobModule&#45;&gt;JobResolver </title>
<path fill="none" stroke="black" stroke-dasharray="5,2" d="M688,-149.88C688,-151.65 688,-152.8 688,-152.8 688,-152.8 2641,-152.8 2641,-152.8 2641,-152.8 2641,-179.79 2641,-179.79"/>
<polygon fill="black" stroke="black" points="2637.5,-179.79 2641,-189.79 2644.5,-179.79 2637.5,-179.79"/>
</g>
<!-- JobService  -->
<g id="node13" class="node">
<title>JobService </title>
<polygon fill="#fb8072" stroke="black" points="2578.43,-225.8 2497.57,-225.8 2497.57,-189.8 2578.43,-189.8 2578.43,-225.8"/>
<text text-anchor="middle" x="2538" y="-203.6" font-family="Times,serif" font-size="14.00">JobService </text>
</g>
<!-- JobModule&#45;&gt;JobService  -->
<g id="edge15" class="edge">
<title>JobModule&#45;&gt;JobService </title>
<path fill="none" stroke="black" stroke-dasharray="5,2" d="M668.25,-149.99C668.25,-153.34 668.25,-155.8 668.25,-155.8 668.25,-155.8 2538,-155.8 2538,-155.8 2538,-155.8 2538,-179.61 2538,-179.61"/>
<polygon fill="black" stroke="black" points="2534.5,-179.61 2538,-189.61 2541.5,-179.61 2534.5,-179.61"/>
</g>
<!-- BotGateway  -->
<g id="node11" class="node">
<title>BotGateway </title>
<polygon fill="#fb8072" stroke="black" points="1657.98,-358.8 1568.02,-358.8 1568.02,-322.8 1657.98,-322.8 1657.98,-358.8"/>
<text text-anchor="middle" x="1613" y="-336.6" font-family="Times,serif" font-size="14.00">BotGateway </text>
</g>
<!-- GatewayModule&#45;&gt;BotGateway  -->
<g id="edge12" class="edge">
<title>GatewayModule&#45;&gt;BotGateway </title>
<path fill="none" stroke="black" stroke-dasharray="5,2" d="M1613,-293.91C1613,-293.91 1613,-312.79 1613,-312.79"/>
<polygon fill="black" stroke="black" points="1609.5,-312.79 1613,-322.79 1616.5,-312.79 1609.5,-312.79"/>
</g>
<!-- JobService -->
<g id="node14" class="node">
<title>JobService</title>
<ellipse fill="#fdb462" stroke="black" cx="2421" cy="-207.8" rx="53.32" ry="18"/>
<text text-anchor="middle" x="2421" y="-203.6" font-family="Times,serif" font-size="14.00">JobService</text>
</g>
<!-- JobService&#45;&gt;JobModule -->
<g id="edge16" class="edge">
<title>JobService&#45;&gt;JobModule</title>
<path fill="none" stroke="black" d="M2421,-189.75C2421,-175.43 2421,-157.8 2421,-157.8 2421,-157.8 707.75,-157.8 707.75,-157.8 707.75,-157.8 707.75,-157.01 707.75,-157.01"/>
<polygon fill="black" stroke="black" points="711.25,-159.86 707.75,-149.86 704.25,-159.86 711.25,-159.86"/>
</g>
<!-- AiArtModel -->
<g id="node19" class="node">
<title>AiArtModel</title>
<ellipse fill="#fdb462" stroke="black" cx="1007" cy="-131.8" rx="58.56" ry="18"/>
<text text-anchor="middle" x="1007" y="-127.6" font-family="Times,serif" font-size="14.00">AiArtModel</text>
</g>
<!-- AiArtModel&#45;&gt;ModelsModule -->
<g id="edge21" class="edge">
<title>AiArtModel&#45;&gt;ModelsModule</title>
<path fill="none" stroke="black" d="M1007,-113.66C1007,-107.34 1007,-101.8 1007,-101.8 1007,-101.8 198.01,-101.8 198.01,-101.8 198.01,-101.8 198.01,-95.12 198.01,-95.12"/>
<polygon fill="black" stroke="black" points="201.51,-95.12 198.01,-85.12 194.51,-95.12 201.51,-95.12"/>
</g>
<!-- AiStoryModel -->
<g id="node20" class="node">
<title>AiStoryModel</title>
<ellipse fill="#fdb462" stroke="black" cx="863" cy="-131.8" rx="66.67" ry="18"/>
<text text-anchor="middle" x="863" y="-127.6" font-family="Times,serif" font-size="14.00">AiStoryModel</text>
</g>
<!-- AiStoryModel&#45;&gt;ModelsModule -->
<g id="edge22" class="edge">
<title>AiStoryModel&#45;&gt;ModelsModule</title>
<path fill="none" stroke="black" d="M863,-113.64C863,-108.76 863,-104.8 863,-104.8 863,-104.8 192.54,-104.8 192.54,-104.8 192.54,-104.8 192.54,-94.91 192.54,-94.91"/>
<polygon fill="black" stroke="black" points="196.04,-94.91 192.54,-84.91 189.04,-94.91 196.04,-94.91"/>
</g>
<!-- AuthModel -->
<g id="node21" class="node">
<title>AuthModel</title>
<ellipse fill="#fdb462" stroke="black" cx="1314" cy="-131.8" rx="55.63" ry="18"/>
<text text-anchor="middle" x="1314" y="-127.6" font-family="Times,serif" font-size="14.00">AuthModel</text>
</g>
<!-- AuthModel&#45;&gt;ModelsModule -->
<g id="edge23" class="edge">
<title>AuthModel&#45;&gt;ModelsModule</title>
<path fill="none" stroke="black" d="M1314,-113.61C1314,-105.52 1314,-97.8 1314,-97.8 1314,-97.8 208.96,-97.8 208.96,-97.8 208.96,-97.8 208.96,-94.83 208.96,-94.83"/>
<polygon fill="black" stroke="black" points="212.46,-94.83 208.96,-84.83 205.46,-94.83 212.46,-94.83"/>
</g>
<!-- CogView2Model -->
<g id="node22" class="node">
<title>CogView2Model</title>
<ellipse fill="#fdb462" stroke="black" cx="1162" cy="-131.8" rx="78.19" ry="18"/>
<text text-anchor="middle" x="1162" y="-127.6" font-family="Times,serif" font-size="14.00">CogView2Model</text>
</g>
<!-- CogView2Model&#45;&gt;ModelsModule -->
<g id="edge24" class="edge">
<title>CogView2Model&#45;&gt;ModelsModule</title>
<path fill="none" stroke="black" d="M1162,-113.56C1162,-106.37 1162,-99.8 1162,-99.8 1162,-99.8 203.49,-99.8 203.49,-99.8 203.49,-99.8 203.49,-94.84 203.49,-94.84"/>
<polygon fill="black" stroke="black" points="206.99,-94.84 203.49,-84.84 199.99,-94.84 206.99,-94.84"/>
</g>
<!-- AiStoryService -->
<g id="node29" class="node">
<title>AiStoryService</title>
<ellipse fill="#fdb462" stroke="black" cx="1466" cy="-207.8" rx="70.65" ry="18"/>
<text text-anchor="middle" x="1466" y="-203.6" font-family="Times,serif" font-size="14.00">AiStoryService</text>
</g>
<!-- AiStoryService&#45;&gt;ServicesModule -->
<g id="edge34" class="edge">
<title>AiStoryService&#45;&gt;ServicesModule</title>
<path fill="none" stroke="black" d="M1444.81,-190.49C1444.81,-183.39 1444.81,-176.8 1444.81,-176.8 1444.81,-176.8 351.5,-176.8 351.5,-176.8 351.5,-176.8 351.5,-159.84 351.5,-159.84"/>
<polygon fill="black" stroke="black" points="355,-159.84 351.5,-149.84 348,-159.84 355,-159.84"/>
</g>
<!-- AmqpService -->
<g id="node30" class="node">
<title>AmqpService</title>
<ellipse fill="#fdb462" stroke="black" cx="1313" cy="-207.8" rx="64.27" ry="18"/>
<text text-anchor="middle" x="1313" y="-203.6" font-family="Times,serif" font-size="14.00">AmqpService</text>
</g>
<!-- AmqpService&#45;&gt;ServicesModule -->
<g id="edge35" class="edge">
<title>AmqpService&#45;&gt;ServicesModule</title>
<path fill="none" stroke="black" d="M1253.65,-200.73C1253.65,-192.44 1253.65,-179.8 1253.65,-179.8 1253.65,-179.8 343.33,-179.8 343.33,-179.8 343.33,-179.8 343.33,-159.95 343.33,-159.95"/>
<polygon fill="black" stroke="black" points="346.83,-159.95 343.33,-149.95 339.83,-159.95 346.83,-159.95"/>
</g>
<!-- CogView2Service -->
<g id="node31" class="node">
<title>CogView2Service</title>
<ellipse fill="#fdb462" stroke="black" cx="1149" cy="-207.8" rx="81.67" ry="18"/>
<text text-anchor="middle" x="1149" y="-203.6" font-family="Times,serif" font-size="14.00">CogView2Service</text>
</g>
<!-- CogView2Service&#45;&gt;ServicesModule -->
<g id="edge36" class="edge">
<title>CogView2Service&#45;&gt;ServicesModule</title>
<path fill="none" stroke="black" d="M1075.54,-199.86C1075.54,-192.21 1075.54,-181.8 1075.54,-181.8 1075.54,-181.8 335.17,-181.8 335.17,-181.8 335.17,-181.8 335.17,-159.85 335.17,-159.85"/>
<polygon fill="black" stroke="black" points="338.67,-159.85 335.17,-149.85 331.67,-159.85 338.67,-159.85"/>
</g>
<!-- DalleMiniService -->
<g id="node32" class="node">
<title>DalleMiniService</title>
<ellipse fill="#fdb462" stroke="black" cx="969" cy="-207.8" rx="79.87" ry="18"/>
<text text-anchor="middle" x="969" y="-203.6" font-family="Times,serif" font-size="14.00">DalleMiniService</text>
</g>
<!-- DalleMiniService&#45;&gt;ServicesModule -->
<g id="edge37" class="edge">
<title>DalleMiniService&#45;&gt;ServicesModule</title>
<path fill="none" stroke="black" d="M909.57,-195.76C909.57,-190.2 909.57,-184.8 909.57,-184.8 909.57,-184.8 327,-184.8 327,-184.8 327,-184.8 327,-160.04 327,-160.04"/>
<polygon fill="black" stroke="black" points="330.5,-160.04 327,-150.04 323.5,-160.04 330.5,-160.04"/>
</g>
<!-- HelpService -->
<g id="node33" class="node">
<title>HelpService</title>
<ellipse fill="#fdb462" stroke="black" cx="813" cy="-207.8" rx="58.53" ry="18"/>
<text text-anchor="middle" x="813" y="-203.6" font-family="Times,serif" font-size="14.00">HelpService</text>
</g>
<!-- HelpService&#45;&gt;ServicesModule -->
<g id="edge38" class="edge">
<title>HelpService&#45;&gt;ServicesModule</title>
<path fill="none" stroke="black" d="M775.2,-193.69C775.2,-190.38 775.2,-187.8 775.2,-187.8 775.2,-187.8 318.84,-187.8 318.84,-187.8 318.84,-187.8 318.84,-159.83 318.84,-159.83"/>
<polygon fill="black" stroke="black" points="322.34,-159.83 318.84,-149.83 315.34,-159.83 322.34,-159.83"/>
</g>
<!-- WomboDreamService -->
<g id="node34" class="node">
<title>WomboDreamService</title>
<ellipse fill="#fdb462" stroke="black" cx="639" cy="-207.8" rx="97.26" ry="18"/>
<text text-anchor="middle" x="639" y="-203.6" font-family="Times,serif" font-size="14.00">WomboDreamService</text>
</g>
<!-- WomboDreamService&#45;&gt;ServicesModule -->
<g id="edge39" class="edge">
<title>WomboDreamService&#45;&gt;ServicesModule</title>
<path fill="none" stroke="black" d="M541.55,-207.8C529.86,-207.8 521.96,-207.8 521.96,-207.8 521.96,-207.8 521.96,-131.8 521.96,-131.8 521.96,-131.8 370.69,-131.8 370.69,-131.8"/>
<polygon fill="black" stroke="black" points="370.69,-128.3 360.69,-131.8 370.69,-135.3 370.69,-128.3"/>
</g>
<!-- Collage -->
<g id="node36" class="node">
<title>Collage</title>
<ellipse fill="#fdb462" stroke="black" cx="1974" cy="-131.8" rx="41.15" ry="18"/>
<text text-anchor="middle" x="1974" y="-127.6" font-family="Times,serif" font-size="14.00">Collage</text>
</g>
<!-- Collage&#45;&gt;UtilitiesModule -->
<g id="edge41" class="edge">
<title>Collage&#45;&gt;UtilitiesModule</title>
<path fill="none" stroke="black" d="M1974,-113.78C1974,-96.43 1974,-72.8 1974,-72.8 1974,-72.8 370.61,-72.8 370.61,-72.8"/>
<polygon fill="black" stroke="black" points="370.61,-69.3 360.61,-72.8 370.61,-76.3 370.61,-69.3"/>
</g>
</g>
</svg>
