<?xml version="1.0" encoding="UTF-8" standalone="no"?>
<!DOCTYPE svg PUBLIC "-//W3C//DTD SVG 1.1//EN"
 "http://www.w3.org/Graphics/SVG/1.1/DTD/svg11.dtd">
<!-- Generated by graphviz version 5.0.0 (20220707.1540)
 -->
<!-- Title: dependencies Pages: 1 -->
<svg width="292pt" height="247pt"
 viewBox="0.00 0.00 292.00 246.80" xmlns="http://www.w3.org/2000/svg" xmlns:xlink="http://www.w3.org/1999/xlink">
<g id="graph0" class="graph" transform="scale(1 1) rotate(0) translate(4 242.8)">
<title>dependencies</title>
<polygon fill="white" stroke="transparent" points="-4,4 -4,-242.8 288,-242.8 288,4 -4,4"/>
<text text-anchor="middle" x="142" y="-8.2" font-family="sans-serif" font-size="14.00">dependencies</text>
<g id="clust1" class="cluster">
<title>cluster_GatewayModule</title>
<polygon fill="none" stroke="black" stroke-dasharray="1,5" points="8,-32.8 8,-230.8 276,-230.8 276,-32.8 8,-32.8"/>
</g>
<g id="clust4" class="cluster">
<title>cluster_GatewayModule_exports</title>
<polygon fill="none" stroke="black" points="83,-170.8 83,-222.8 189,-222.8 189,-170.8 83,-170.8"/>
</g>
<g id="clust6" class="cluster">
<title>cluster_GatewayModule_providers</title>
<polygon fill="none" stroke="black" points="134,-40.8 134,-92.8 268,-92.8 268,-40.8 134,-40.8"/>
</g>
<g id="clust3" class="cluster">
<title>cluster_GatewayModule_imports</title>
<polygon fill="none" stroke="black" points="16,-40.8 16,-92.8 126,-92.8 126,-40.8 16,-40.8"/>
</g>
<!-- EntityModule -->
<g id="node1" class="node">
<title>EntityModule</title>
<polygon fill="#8dd3c7" stroke="black" points="117.77,-84.8 114.77,-88.8 93.77,-88.8 90.77,-84.8 24.23,-84.8 24.23,-48.8 117.77,-48.8 117.77,-84.8"/>
<text text-anchor="middle" x="71" y="-62.6" font-family="Times,serif" font-size="14.00">EntityModule</text>
</g>
<!-- GatewayModule -->
<g id="node2" class="node">
<title>GatewayModule</title>
<polygon fill="#8dd3c7" stroke="black" points="190.8,-149.8 187.8,-153.8 166.8,-153.8 163.8,-149.8 81.2,-149.8 81.2,-113.8 190.8,-113.8 190.8,-149.8"/>
<text text-anchor="middle" x="136" y="-127.6" font-family="Times,serif" font-size="14.00">GatewayModule</text>
</g>
<!-- EntityModule&#45;&gt;GatewayModule -->
<g id="edge1" class="edge">
<title>EntityModule&#45;&gt;GatewayModule</title>
<path fill="none" stroke="black" d="M99.62,-84.91C99.62,-84.91 99.62,-103.79 99.62,-103.79"/>
<polygon fill="black" stroke="black" points="96.12,-103.79 99.62,-113.79 103.12,-103.79 96.12,-103.79"/>
</g>
<!-- BotGateway  -->
<g id="node3" class="node">
<title>BotGateway </title>
<polygon fill="#fb8072" stroke="black" points="180.98,-214.8 91.02,-214.8 91.02,-178.8 180.98,-178.8 180.98,-214.8"/>
<text text-anchor="middle" x="136" y="-192.6" font-family="Times,serif" font-size="14.00">BotGateway </text>
</g>
<!-- GatewayModule&#45;&gt;BotGateway  -->
<g id="edge2" class="edge">
<title>GatewayModule&#45;&gt;BotGateway </title>
<path fill="none" stroke="black" stroke-dasharray="5,2" d="M136,-149.91C136,-149.91 136,-168.79 136,-168.79"/>
<polygon fill="black" stroke="black" points="132.5,-168.79 136,-178.79 139.5,-168.79 132.5,-168.79"/>
</g>
<!-- BotGateway -->
<g id="node4" class="node">
<title>BotGateway</title>
<ellipse fill="#fdb462" stroke="black" cx="201" cy="-66.8" rx="59.11" ry="18"/>
<text text-anchor="middle" x="201" y="-62.6" font-family="Times,serif" font-size="14.00">BotGateway</text>
</g>
<!-- BotGateway&#45;&gt;GatewayModule -->
<g id="edge3" class="edge">
<title>BotGateway&#45;&gt;GatewayModule</title>
<path fill="none" stroke="black" d="M166.17,-81.55C166.17,-81.55 166.17,-103.39 166.17,-103.39"/>
<polygon fill="black" stroke="black" points="162.67,-103.39 166.17,-113.39 169.67,-103.39 162.67,-103.39"/>
</g>
</g>
</svg>
