<?xml version="1.0" encoding="UTF-8" standalone="no"?>
<!DOCTYPE svg PUBLIC "-//W3C//DTD SVG 1.1//EN"
 "http://www.w3.org/Graphics/SVG/1.1/DTD/svg11.dtd">
<!-- Generated by graphviz version 5.0.0 (20220707.1540)
 -->
<!-- Title: dependencies Pages: 1 -->
<svg width="274pt" height="174pt"
 viewBox="0.00 0.00 274.00 173.80" xmlns="http://www.w3.org/2000/svg" xmlns:xlink="http://www.w3.org/1999/xlink">
<g id="graph0" class="graph" transform="scale(1 1) rotate(0) translate(4 169.8)">
<title>dependencies</title>
<polygon fill="white" stroke="transparent" points="-4,4 -4,-169.8 270,-169.8 270,4 -4,4"/>
<text text-anchor="middle" x="133" y="-8.2" font-family="sans-serif" font-size="14.00">dependencies</text>
<g id="clust1" class="cluster">
<title>cluster_CommandsModule</title>
<polygon fill="none" stroke="black" stroke-dasharray="1,5" points="8,-32.8 8,-157.8 258,-157.8 258,-32.8 8,-32.8"/>
</g>
<g id="clust3" class="cluster">
<title>cluster_CommandsModule_imports</title>
<polygon fill="none" stroke="black" points="16,-40.8 16,-92.8 250,-92.8 250,-40.8 16,-40.8"/>
</g>
<!-- EntityModule -->
<g id="node1" class="node">
<title>EntityModule</title>
<polygon fill="#8dd3c7" stroke="black" points="241.77,-84.8 238.77,-88.8 217.77,-88.8 214.77,-84.8 148.23,-84.8 148.23,-48.8 241.77,-48.8 241.77,-84.8"/>
<text text-anchor="middle" x="195" y="-62.6" font-family="Times,serif" font-size="14.00">EntityModule</text>
</g>
<!-- CommandsModule -->
<g id="node3" class="node">
<title>CommandsModule</title>
<polygon fill="#8dd3c7" stroke="black" points="194.83,-149.8 191.83,-153.8 170.83,-153.8 167.83,-149.8 71.17,-149.8 71.17,-113.8 194.83,-113.8 194.83,-149.8"/>
<text text-anchor="middle" x="133" y="-127.6" font-family="Times,serif" font-size="14.00">CommandsModule</text>
</g>
<!-- EntityModule&#45;&gt;CommandsModule -->
<g id="edge1" class="edge">
<title>EntityModule&#45;&gt;CommandsModule</title>
<path fill="none" stroke="black" d="M171.39,-84.91C171.39,-84.91 171.39,-103.79 171.39,-103.79"/>
<polygon fill="black" stroke="black" points="167.89,-103.79 171.39,-113.79 174.89,-103.79 167.89,-103.79"/>
</g>
<!-- ServicesModule -->
<g id="node2" class="node">
<title>ServicesModule</title>
<polygon fill="#8dd3c7" stroke="black" points="130.48,-84.8 127.48,-88.8 106.48,-88.8 103.48,-84.8 23.52,-84.8 23.52,-48.8 130.48,-48.8 130.48,-84.8"/>
<text text-anchor="middle" x="77" y="-62.6" font-family="Times,serif" font-size="14.00">ServicesModule</text>
</g>
<!-- ServicesModule&#45;&gt;CommandsModule -->
<g id="edge2" class="edge">
<title>ServicesModule&#45;&gt;CommandsModule</title>
<path fill="none" stroke="black" d="M100.91,-84.91C100.91,-84.91 100.91,-103.79 100.91,-103.79"/>
<polygon fill="black" stroke="black" points="97.41,-103.79 100.91,-113.79 104.41,-103.79 97.41,-103.79"/>
</g>
</g>
</svg>
