<?xml version="1.0" encoding="UTF-8" standalone="no"?>
<!DOCTYPE svg PUBLIC "-//W3C//DTD SVG 1.1//EN"
 "http://www.w3.org/Graphics/SVG/1.1/DTD/svg11.dtd">
<!-- Generated by graphviz version 5.0.0 (20220707.1540)
 -->
<!-- Title: dependencies Pages: 1 -->
<svg width="801pt" height="174pt"
 viewBox="0.00 0.00 801.00 173.80" xmlns="http://www.w3.org/2000/svg" xmlns:xlink="http://www.w3.org/1999/xlink">
<g id="graph0" class="graph" transform="scale(1 1) rotate(0) translate(4 169.8)">
<title>dependencies</title>
<polygon fill="white" stroke="transparent" points="-4,4 -4,-169.8 797,-169.8 797,4 -4,4"/>
<text text-anchor="middle" x="396.5" y="-8.2" font-family="sans-serif" font-size="14.00">dependencies</text>
<g id="clust1" class="cluster">
<title>cluster_AppModule</title>
<polygon fill="none" stroke="black" stroke-dasharray="1,5" points="8,-32.8 8,-157.8 785,-157.8 785,-32.8 8,-32.8"/>
</g>
<g id="clust6" class="cluster">
<title>cluster_AppModule_providers</title>
<polygon fill="none" stroke="black" points="643,-40.8 643,-92.8 777,-92.8 777,-40.8 643,-40.8"/>
</g>
<g id="clust3" class="cluster">
<title>cluster_AppModule_imports</title>
<polygon fill="none" stroke="black" points="16,-40.8 16,-92.8 635,-92.8 635,-40.8 16,-40.8"/>
</g>
<!-- CommandsModule -->
<g id="node1" class="node">
<title>CommandsModule</title>
<polygon fill="#8dd3c7" stroke="black" points="626.83,-84.8 623.83,-88.8 602.83,-88.8 599.83,-84.8 503.17,-84.8 503.17,-48.8 626.83,-48.8 626.83,-84.8"/>
<text text-anchor="middle" x="565" y="-62.6" font-family="Times,serif" font-size="14.00">CommandsModule</text>
</g>
<!-- AppModule -->
<g id="node6" class="node">
<title>AppModule</title>
<polygon fill="#8dd3c7" stroke="black" points="421.66,-149.8 418.66,-153.8 397.66,-153.8 394.66,-149.8 338.34,-149.8 338.34,-113.8 421.66,-113.8 421.66,-149.8"/>
<text text-anchor="middle" x="380" y="-127.6" font-family="Times,serif" font-size="14.00">AppModule</text>
</g>
<!-- CommandsModule&#45;&gt;AppModule -->
<g id="edge1" class="edge">
<title>CommandsModule&#45;&gt;AppModule</title>
<path fill="none" stroke="black" d="M565,-84.82C565,-102.17 565,-125.8 565,-125.8 565,-125.8 431.98,-125.8 431.98,-125.8"/>
<polygon fill="black" stroke="black" points="431.98,-122.3 421.98,-125.8 431.98,-129.3 431.98,-122.3"/>
</g>
<!-- EntityModule -->
<g id="node2" class="node">
<title>EntityModule</title>
<polygon fill="#8dd3c7" stroke="black" points="484.77,-84.8 481.77,-88.8 460.77,-88.8 457.77,-84.8 391.23,-84.8 391.23,-48.8 484.77,-48.8 484.77,-84.8"/>
<text text-anchor="middle" x="438" y="-62.6" font-family="Times,serif" font-size="14.00">EntityModule</text>
</g>
<!-- EntityModule&#45;&gt;AppModule -->
<g id="edge2" class="edge">
<title>EntityModule&#45;&gt;AppModule</title>
<path fill="none" stroke="black" d="M406.47,-84.91C406.47,-84.91 406.47,-103.79 406.47,-103.79"/>
<polygon fill="black" stroke="black" points="402.97,-103.79 406.47,-113.79 409.97,-103.79 402.97,-103.79"/>
</g>
<!-- ModelsModule -->
<g id="node3" class="node">
<title>ModelsModule</title>
<polygon fill="#8dd3c7" stroke="black" points="372.55,-84.8 369.55,-88.8 348.55,-88.8 345.55,-84.8 271.45,-84.8 271.45,-48.8 372.55,-48.8 372.55,-84.8"/>
<text text-anchor="middle" x="322" y="-62.6" font-family="Times,serif" font-size="14.00">ModelsModule</text>
</g>
<!-- ModelsModule&#45;&gt;AppModule -->
<g id="edge3" class="edge">
<title>ModelsModule&#45;&gt;AppModule</title>
<path fill="none" stroke="black" d="M355.47,-84.91C355.47,-84.91 355.47,-103.79 355.47,-103.79"/>
<polygon fill="black" stroke="black" points="351.97,-103.79 355.47,-113.79 358.97,-103.79 351.97,-103.79"/>
</g>
<!-- ServicesModule -->
<g id="node4" class="node">
<title>ServicesModule</title>
<polygon fill="#8dd3c7" stroke="black" points="253.48,-84.8 250.48,-88.8 229.48,-88.8 226.48,-84.8 146.52,-84.8 146.52,-48.8 253.48,-48.8 253.48,-84.8"/>
<text text-anchor="middle" x="200" y="-62.6" font-family="Times,serif" font-size="14.00">ServicesModule</text>
</g>
<!-- ServicesModule&#45;&gt;AppModule -->
<g id="edge4" class="edge">
<title>ServicesModule&#45;&gt;AppModule</title>
<path fill="none" stroke="black" d="M200,-84.82C200,-102.17 200,-125.8 200,-125.8 200,-125.8 328.25,-125.8 328.25,-125.8"/>
<polygon fill="black" stroke="black" points="328.25,-129.3 338.25,-125.8 328.25,-122.3 328.25,-129.3"/>
</g>
<!-- UtilitiesModule -->
<g id="node5" class="node">
<title>UtilitiesModule</title>
<polygon fill="#8dd3c7" stroke="black" points="128.16,-84.8 125.16,-88.8 104.16,-88.8 101.16,-84.8 23.84,-84.8 23.84,-48.8 128.16,-48.8 128.16,-84.8"/>
<text text-anchor="middle" x="76" y="-62.6" font-family="Times,serif" font-size="14.00">UtilitiesModule</text>
</g>
<!-- UtilitiesModule&#45;&gt;AppModule -->
<g id="edge5" class="edge">
<title>UtilitiesModule&#45;&gt;AppModule</title>
<path fill="none" stroke="black" d="M76,-85.08C76,-106.12 76,-137.8 76,-137.8 76,-137.8 328.05,-137.8 328.05,-137.8"/>
<polygon fill="black" stroke="black" points="328.05,-141.3 338.05,-137.8 328.05,-134.3 328.05,-141.3"/>
</g>
<!-- BotGateway -->
<g id="node7" class="node">
<title>BotGateway</title>
<ellipse fill="#fdb462" stroke="black" cx="710" cy="-66.8" rx="59.11" ry="18"/>
<text text-anchor="middle" x="710" y="-62.6" font-family="Times,serif" font-size="14.00">BotGateway</text>
</g>
<!-- BotGateway&#45;&gt;AppModule -->
<g id="edge6" class="edge">
<title>BotGateway&#45;&gt;AppModule</title>
<path fill="none" stroke="black" d="M710,-85.08C710,-106.12 710,-137.8 710,-137.8 710,-137.8 431.79,-137.8 431.79,-137.8"/>
<polygon fill="black" stroke="black" points="431.79,-134.3 421.79,-137.8 431.79,-141.3 431.79,-134.3"/>
</g>
</g>
</svg>
