<?xml version="1.0" encoding="UTF-8" standalone="no"?>
<!DOCTYPE svg PUBLIC "-//W3C//DTD SVG 1.1//EN"
 "http://www.w3.org/Graphics/SVG/1.1/DTD/svg11.dtd">
<!-- Generated by graphviz version 5.0.0 (20220707.1540)
 -->
<!-- Title: dependencies Pages: 1 -->
<svg width="243pt" height="247pt"
 viewBox="0.00 0.00 243.00 246.80" xmlns="http://www.w3.org/2000/svg" xmlns:xlink="http://www.w3.org/1999/xlink">
<g id="graph0" class="graph" transform="scale(1 1) rotate(0) translate(4 242.8)">
<title>dependencies</title>
<polygon fill="white" stroke="transparent" points="-4,4 -4,-242.8 239,-242.8 239,4 -4,4"/>
<text text-anchor="middle" x="117.5" y="-8.2" font-family="sans-serif" font-size="14.00">dependencies</text>
<g id="clust1" class="cluster">
<title>cluster_JobModule</title>
<polygon fill="none" stroke="black" stroke-dasharray="1,5" points="8,-32.8 8,-230.8 227,-230.8 227,-32.8 8,-32.8"/>
</g>
<g id="clust6" class="cluster">
<title>cluster_JobModule_providers</title>
<polygon fill="none" stroke="black" points="56,-40.8 56,-92.8 178,-92.8 178,-40.8 56,-40.8"/>
</g>
<g id="clust4" class="cluster">
<title>cluster_JobModule_exports</title>
<polygon fill="none" stroke="black" points="16,-170.8 16,-222.8 219,-222.8 219,-170.8 16,-170.8"/>
</g>
<!-- JobResolver  -->
<g id="node1" class="node">
<title>JobResolver </title>
<polygon fill="#fb8072" stroke="black" points="211.21,-214.8 122.79,-214.8 122.79,-178.8 211.21,-178.8 211.21,-214.8"/>
<text text-anchor="middle" x="167" y="-192.6" font-family="Times,serif" font-size="14.00">JobResolver </text>
</g>
<!-- JobService  -->
<g id="node2" class="node">
<title>JobService </title>
<polygon fill="#fb8072" stroke="black" points="104.43,-214.8 23.57,-214.8 23.57,-178.8 104.43,-178.8 104.43,-214.8"/>
<text text-anchor="middle" x="64" y="-192.6" font-family="Times,serif" font-size="14.00">JobService </text>
</g>
<!-- JobModule -->
<g id="node3" class="node">
<title>JobModule</title>
<polygon fill="#8dd3c7" stroke="black" points="156.5,-149.8 153.5,-153.8 132.5,-153.8 129.5,-149.8 77.5,-149.8 77.5,-113.8 156.5,-113.8 156.5,-149.8"/>
<text text-anchor="middle" x="117" y="-127.6" font-family="Times,serif" font-size="14.00">JobModule</text>
</g>
<!-- JobModule&#45;&gt;JobResolver  -->
<g id="edge1" class="edge">
<title>JobModule&#45;&gt;JobResolver </title>
<path fill="none" stroke="black" stroke-dasharray="5,2" d="M139.57,-149.91C139.57,-149.91 139.57,-168.79 139.57,-168.79"/>
<polygon fill="black" stroke="black" points="136.07,-168.79 139.57,-178.79 143.07,-168.79 136.07,-168.79"/>
</g>
<!-- JobModule&#45;&gt;JobService  -->
<g id="edge2" class="edge">
<title>JobModule&#45;&gt;JobService </title>
<path fill="none" stroke="black" stroke-dasharray="5,2" d="M90.98,-149.91C90.98,-149.91 90.98,-168.79 90.98,-168.79"/>
<polygon fill="black" stroke="black" points="87.48,-168.79 90.98,-178.79 94.48,-168.79 87.48,-168.79"/>
</g>
<!-- JobService -->
<g id="node4" class="node">
<title>JobService</title>
<ellipse fill="#fdb462" stroke="black" cx="117" cy="-66.8" rx="53.32" ry="18"/>
<text text-anchor="middle" x="117" y="-62.6" font-family="Times,serif" font-size="14.00">JobService</text>
</g>
<!-- JobService&#45;&gt;JobModule -->
<g id="edge3" class="edge">
<title>JobService&#45;&gt;JobModule</title>
<path fill="none" stroke="black" d="M117,-84.91C117,-84.91 117,-103.79 117,-103.79"/>
<polygon fill="black" stroke="black" points="113.5,-103.79 117,-113.79 120.5,-103.79 113.5,-103.79"/>
</g>
</g>
</svg>
