<?xml version="1.0" encoding="UTF-8" standalone="no"?>
<!DOCTYPE svg PUBLIC "-//W3C//DTD SVG 1.1//EN"
 "http://www.w3.org/Graphics/SVG/1.1/DTD/svg11.dtd">
<!-- Generated by graphviz version 5.0.0 (20220707.1540)
 -->
<!-- Title: dependencies Pages: 1 -->
<svg width="138pt" height="247pt"
 viewBox="0.00 0.00 138.00 246.80" xmlns="http://www.w3.org/2000/svg" xmlns:xlink="http://www.w3.org/1999/xlink">
<g id="graph0" class="graph" transform="scale(1 1) rotate(0) translate(4 242.8)">
<title>dependencies</title>
<polygon fill="white" stroke="transparent" points="-4,4 -4,-242.8 134,-242.8 134,4 -4,4"/>
<text text-anchor="middle" x="65" y="-8.2" font-family="sans-serif" font-size="14.00">dependencies</text>
<g id="clust1" class="cluster">
<title>cluster_EntityModule</title>
<polygon fill="none" stroke="black" stroke-dasharray="1,5" points="8,-32.8 8,-230.8 122,-230.8 122,-32.8 8,-32.8"/>
</g>
<g id="clust4" class="cluster">
<title>cluster_EntityModule_exports</title>
<polygon fill="none" stroke="black" points="16,-170.8 16,-222.8 114,-222.8 114,-170.8 16,-170.8"/>
</g>
<g id="clust3" class="cluster">
<title>cluster_EntityModule_imports</title>
<polygon fill="none" stroke="black" points="17,-40.8 17,-92.8 113,-92.8 113,-40.8 17,-40.8"/>
</g>
<!-- JobModule -->
<g id="node1" class="node">
<title>JobModule</title>
<polygon fill="#8dd3c7" stroke="black" points="104.5,-84.8 101.5,-88.8 80.5,-88.8 77.5,-84.8 25.5,-84.8 25.5,-48.8 104.5,-48.8 104.5,-84.8"/>
<text text-anchor="middle" x="65" y="-62.6" font-family="Times,serif" font-size="14.00">JobModule</text>
</g>
<!-- EntityModule -->
<g id="node2" class="node">
<title>EntityModule</title>
<polygon fill="#8dd3c7" stroke="black" points="111.77,-149.8 108.77,-153.8 87.77,-153.8 84.77,-149.8 18.23,-149.8 18.23,-113.8 111.77,-113.8 111.77,-149.8"/>
<text text-anchor="middle" x="65" y="-127.6" font-family="Times,serif" font-size="14.00">EntityModule</text>
</g>
<!-- JobModule&#45;&gt;EntityModule -->
<g id="edge1" class="edge">
<title>JobModule&#45;&gt;EntityModule</title>
<path fill="none" stroke="black" d="M65,-84.91C65,-84.91 65,-103.79 65,-103.79"/>
<polygon fill="black" stroke="black" points="61.5,-103.79 65,-113.79 68.5,-103.79 61.5,-103.79"/>
</g>
<!-- JobModule  -->
<g id="node3" class="node">
<title>JobModule </title>
<polygon fill="#fb8072" stroke="black" points="106,-214.8 24,-214.8 24,-178.8 106,-178.8 106,-214.8"/>
<text text-anchor="middle" x="65" y="-192.6" font-family="Times,serif" font-size="14.00">JobModule </text>
</g>
<!-- EntityModule&#45;&gt;JobModule  -->
<g id="edge2" class="edge">
<title>EntityModule&#45;&gt;JobModule </title>
<path fill="none" stroke="black" stroke-dasharray="5,2" d="M65,-149.91C65,-149.91 65,-168.79 65,-168.79"/>
<polygon fill="black" stroke="black" points="61.5,-168.79 65,-178.79 68.5,-168.79 61.5,-168.79"/>
</g>
</g>
</svg>
