<?xml version="1.0" encoding="UTF-8" standalone="no"?>
<!DOCTYPE svg PUBLIC "-//W3C//DTD SVG 1.1//EN"
 "http://www.w3.org/Graphics/SVG/1.1/DTD/svg11.dtd">
<!-- Generated by graphviz version 5.0.0 (20220707.1540)
 -->
<!-- Title: dependencies Pages: 1 -->
<svg width="1411pt" height="247pt"
 viewBox="0.00 0.00 1411.00 246.80" xmlns="http://www.w3.org/2000/svg" xmlns:xlink="http://www.w3.org/1999/xlink">
<g id="graph0" class="graph" transform="scale(1 1) rotate(0) translate(4 242.8)">
<title>dependencies</title>
<polygon fill="white" stroke="transparent" points="-4,4 -4,-242.8 1407,-242.8 1407,4 -4,4"/>
<text text-anchor="middle" x="701.5" y="-8.2" font-family="sans-serif" font-size="14.00">dependencies</text>
<g id="clust1" class="cluster">
<title>cluster_ServicesModule</title>
<polygon fill="none" stroke="black" stroke-dasharray="1,5" points="8,-32.8 8,-230.8 1395,-230.8 1395,-32.8 8,-32.8"/>
</g>
<g id="clust3" class="cluster">
<title>cluster_ServicesModule_imports</title>
<polygon fill="none" stroke="black" points="1035,-40.8 1035,-92.8 1387,-92.8 1387,-40.8 1035,-40.8"/>
</g>
<g id="clust4" class="cluster">
<title>cluster_ServicesModule_exports</title>
<polygon fill="none" stroke="black" points="389,-170.8 389,-222.8 1172,-222.8 1172,-170.8 389,-170.8"/>
</g>
<g id="clust6" class="cluster">
<title>cluster_ServicesModule_providers</title>
<polygon fill="none" stroke="black" points="16,-40.8 16,-92.8 1027,-92.8 1027,-40.8 16,-40.8"/>
</g>
<!-- EntityModule -->
<g id="node1" class="node">
<title>EntityModule</title>
<polygon fill="#8dd3c7" stroke="black" points="1378.77,-84.8 1375.77,-88.8 1354.77,-88.8 1351.77,-84.8 1285.23,-84.8 1285.23,-48.8 1378.77,-48.8 1378.77,-84.8"/>
<text text-anchor="middle" x="1332" y="-62.6" font-family="Times,serif" font-size="14.00">EntityModule</text>
</g>
<!-- ServicesModule -->
<g id="node4" class="node">
<title>ServicesModule</title>
<polygon fill="#8dd3c7" stroke="black" points="848.48,-149.8 845.48,-153.8 824.48,-153.8 821.48,-149.8 741.52,-149.8 741.52,-113.8 848.48,-113.8 848.48,-149.8"/>
<text text-anchor="middle" x="795" y="-127.6" font-family="Times,serif" font-size="14.00">ServicesModule</text>
</g>
<!-- EntityModule&#45;&gt;ServicesModule -->
<g id="edge1" class="edge">
<title>EntityModule&#45;&gt;ServicesModule</title>
<path fill="none" stroke="black" d="M1332,-85.02C1332,-105.17 1332,-134.8 1332,-134.8 1332,-134.8 858.95,-134.8 858.95,-134.8"/>
<polygon fill="black" stroke="black" points="858.95,-131.3 848.95,-134.8 858.95,-138.3 858.95,-131.3"/>
</g>
<!-- ModelsModule -->
<g id="node2" class="node">
<title>ModelsModule</title>
<polygon fill="#8dd3c7" stroke="black" points="1266.55,-84.8 1263.55,-88.8 1242.55,-88.8 1239.55,-84.8 1165.45,-84.8 1165.45,-48.8 1266.55,-48.8 1266.55,-84.8"/>
<text text-anchor="middle" x="1216" y="-62.6" font-family="Times,serif" font-size="14.00">ModelsModule</text>
</g>
<!-- ModelsModule&#45;&gt;ServicesModule -->
<g id="edge2" class="edge">
<title>ModelsModule&#45;&gt;ServicesModule</title>
<path fill="none" stroke="black" d="M1216,-85.02C1216,-103.63 1216,-129.8 1216,-129.8 1216,-129.8 858.75,-129.8 858.75,-129.8"/>
<polygon fill="black" stroke="black" points="858.75,-126.3 848.75,-129.8 858.75,-133.3 858.75,-126.3"/>
</g>
<!-- UtilitiesModule -->
<g id="node3" class="node">
<title>UtilitiesModule</title>
<polygon fill="#8dd3c7" stroke="black" points="1147.16,-84.8 1144.16,-88.8 1123.16,-88.8 1120.16,-84.8 1042.84,-84.8 1042.84,-48.8 1147.16,-48.8 1147.16,-84.8"/>
<text text-anchor="middle" x="1095" y="-62.6" font-family="Times,serif" font-size="14.00">UtilitiesModule</text>
</g>
<!-- UtilitiesModule&#45;&gt;ServicesModule -->
<g id="edge3" class="edge">
<title>UtilitiesModule&#45;&gt;ServicesModule</title>
<path fill="none" stroke="black" d="M1050.38,-84.83C1050.38,-101.86 1050.38,-124.8 1050.38,-124.8 1050.38,-124.8 858.54,-124.8 858.54,-124.8"/>
<polygon fill="black" stroke="black" points="858.54,-121.3 848.54,-124.8 858.54,-128.3 858.54,-121.3"/>
</g>
<!-- AiStoryService  -->
<g id="node5" class="node">
<title>AiStoryService </title>
<polygon fill="#fb8072" stroke="black" points="1163.82,-214.8 1058.18,-214.8 1058.18,-178.8 1163.82,-178.8 1163.82,-214.8"/>
<text text-anchor="middle" x="1111" y="-192.6" font-family="Times,serif" font-size="14.00">AiStoryService </text>
</g>
<!-- ServicesModule&#45;&gt;AiStoryService  -->
<g id="edge4" class="edge">
<title>ServicesModule&#45;&gt;AiStoryService </title>
<path fill="none" stroke="black" stroke-dasharray="5,2" d="M848.6,-139.8C936.76,-139.8 1102.71,-139.8 1102.71,-139.8 1102.71,-139.8 1102.71,-168.76 1102.71,-168.76"/>
<polygon fill="black" stroke="black" points="1099.21,-168.76 1102.71,-178.76 1106.21,-168.76 1099.21,-168.76"/>
</g>
<!-- AmqpService  -->
<g id="node6" class="node">
<title>AmqpService </title>
<polygon fill="#fb8072" stroke="black" points="1040.48,-214.8 943.52,-214.8 943.52,-178.8 1040.48,-178.8 1040.48,-214.8"/>
<text text-anchor="middle" x="992" y="-192.6" font-family="Times,serif" font-size="14.00">AmqpService </text>
</g>
<!-- ServicesModule&#45;&gt;AmqpService  -->
<g id="edge5" class="edge">
<title>ServicesModule&#45;&gt;AmqpService </title>
<path fill="none" stroke="black" stroke-dasharray="5,2" d="M848.85,-144.8C903.83,-144.8 981.17,-144.8 981.17,-144.8 981.17,-144.8 981.17,-168.61 981.17,-168.61"/>
<polygon fill="black" stroke="black" points="977.67,-168.61 981.17,-178.61 984.67,-168.61 977.67,-168.61"/>
</g>
<!-- CogView2Service  -->
<g id="node7" class="node">
<title>CogView2Service </title>
<polygon fill="#fb8072" stroke="black" points="926.14,-214.8 803.86,-214.8 803.86,-178.8 926.14,-178.8 926.14,-214.8"/>
<text text-anchor="middle" x="865" y="-192.6" font-family="Times,serif" font-size="14.00">CogView2Service </text>
</g>
<!-- ServicesModule&#45;&gt;CogView2Service  -->
<g id="edge6" class="edge">
<title>ServicesModule&#45;&gt;CogView2Service </title>
<path fill="none" stroke="black" stroke-dasharray="5,2" d="M826.21,-149.91C826.21,-149.91 826.21,-168.79 826.21,-168.79"/>
<polygon fill="black" stroke="black" points="822.71,-168.79 826.21,-178.79 829.71,-168.79 822.71,-168.79"/>
</g>
<!-- DalleMiniService  -->
<g id="node8" class="node">
<title>DalleMiniService </title>
<polygon fill="#fb8072" stroke="black" points="785.52,-214.8 666.48,-214.8 666.48,-178.8 785.52,-178.8 785.52,-214.8"/>
<text text-anchor="middle" x="726" y="-192.6" font-family="Times,serif" font-size="14.00">DalleMiniService </text>
</g>
<!-- ServicesModule&#45;&gt;DalleMiniService  -->
<g id="edge7" class="edge">
<title>ServicesModule&#45;&gt;DalleMiniService </title>
<path fill="none" stroke="black" stroke-dasharray="5,2" d="M763.51,-149.91C763.51,-149.91 763.51,-168.79 763.51,-168.79"/>
<polygon fill="black" stroke="black" points="760.01,-168.79 763.51,-178.79 767.01,-168.79 760.01,-168.79"/>
</g>
<!-- HelpService  -->
<g id="node9" class="node">
<title>HelpService </title>
<polygon fill="#fb8072" stroke="black" points="648.19,-214.8 559.81,-214.8 559.81,-178.8 648.19,-178.8 648.19,-214.8"/>
<text text-anchor="middle" x="604" y="-192.6" font-family="Times,serif" font-size="14.00">HelpService </text>
</g>
<!-- ServicesModule&#45;&gt;HelpService  -->
<g id="edge8" class="edge">
<title>ServicesModule&#45;&gt;HelpService </title>
<path fill="none" stroke="black" stroke-dasharray="5,2" d="M741.29,-144.8C684.79,-144.8 604,-144.8 604,-144.8 604,-144.8 604,-168.61 604,-168.61"/>
<polygon fill="black" stroke="black" points="600.5,-168.61 604,-178.61 607.5,-168.61 600.5,-168.61"/>
</g>
<!-- WomboDreamService  -->
<g id="node10" class="node">
<title>WomboDreamService </title>
<polygon fill="#fb8072" stroke="black" points="541.17,-214.8 396.83,-214.8 396.83,-178.8 541.17,-178.8 541.17,-214.8"/>
<text text-anchor="middle" x="469" y="-192.6" font-family="Times,serif" font-size="14.00">WomboDreamService </text>
</g>
<!-- ServicesModule&#45;&gt;WomboDreamService  -->
<g id="edge9" class="edge">
<title>ServicesModule&#45;&gt;WomboDreamService </title>
<path fill="none" stroke="black" stroke-dasharray="5,2" d="M741.34,-139.8C665.48,-139.8 536.01,-139.8 536.01,-139.8 536.01,-139.8 536.01,-168.76 536.01,-168.76"/>
<polygon fill="black" stroke="black" points="532.51,-168.76 536.01,-178.76 539.51,-168.76 532.51,-168.76"/>
</g>
<!-- AiStoryService -->
<g id="node11" class="node">
<title>AiStoryService</title>
<ellipse fill="#fdb462" stroke="black" cx="948" cy="-66.8" rx="70.65" ry="18"/>
<text text-anchor="middle" x="948" y="-62.6" font-family="Times,serif" font-size="14.00">AiStoryService</text>
</g>
<!-- AiStoryService&#45;&gt;ServicesModule -->
<g id="edge10" class="edge">
<title>AiStoryService&#45;&gt;ServicesModule</title>
<path fill="none" stroke="black" d="M901.75,-80.45C901.75,-96.15 901.75,-119.8 901.75,-119.8 901.75,-119.8 858.69,-119.8 858.69,-119.8"/>
<polygon fill="black" stroke="black" points="858.69,-116.3 848.69,-119.8 858.69,-123.3 858.69,-116.3"/>
</g>
<!-- AmqpService -->
<g id="node12" class="node">
<title>AmqpService</title>
<ellipse fill="#fdb462" stroke="black" cx="795" cy="-66.8" rx="64.27" ry="18"/>
<text text-anchor="middle" x="795" y="-62.6" font-family="Times,serif" font-size="14.00">AmqpService</text>
</g>
<!-- AmqpService&#45;&gt;ServicesModule -->
<g id="edge11" class="edge">
<title>AmqpService&#45;&gt;ServicesModule</title>
<path fill="none" stroke="black" d="M795,-84.91C795,-84.91 795,-103.79 795,-103.79"/>
<polygon fill="black" stroke="black" points="791.5,-103.79 795,-113.79 798.5,-103.79 791.5,-103.79"/>
</g>
<!-- CogView2Service -->
<g id="node13" class="node">
<title>CogView2Service</title>
<ellipse fill="#fdb462" stroke="black" cx="631" cy="-66.8" rx="81.67" ry="18"/>
<text text-anchor="middle" x="631" y="-62.6" font-family="Times,serif" font-size="14.00">CogView2Service</text>
</g>
<!-- CogView2Service&#45;&gt;ServicesModule -->
<g id="edge12" class="edge">
<title>CogView2Service&#45;&gt;ServicesModule</title>
<path fill="none" stroke="black" d="M689.66,-79.36C689.66,-95.03 689.66,-119.8 689.66,-119.8 689.66,-119.8 731.41,-119.8 731.41,-119.8"/>
<polygon fill="black" stroke="black" points="731.41,-123.3 741.41,-119.8 731.41,-116.3 731.41,-123.3"/>
</g>
<!-- DalleMiniService -->
<g id="node14" class="node">
<title>DalleMiniService</title>
<ellipse fill="#fdb462" stroke="black" cx="451" cy="-66.8" rx="79.87" ry="18"/>
<text text-anchor="middle" x="451" y="-62.6" font-family="Times,serif" font-size="14.00">DalleMiniService</text>
</g>
<!-- DalleMiniService&#45;&gt;ServicesModule -->
<g id="edge13" class="edge">
<title>DalleMiniService&#45;&gt;ServicesModule</title>
<path fill="none" stroke="black" d="M463.68,-84.83C463.68,-101.86 463.68,-124.8 463.68,-124.8 463.68,-124.8 731.4,-124.8 731.4,-124.8"/>
<polygon fill="black" stroke="black" points="731.4,-128.3 741.4,-124.8 731.4,-121.3 731.4,-128.3"/>
</g>
<!-- HelpService -->
<g id="node15" class="node">
<title>HelpService</title>
<ellipse fill="#fdb462" stroke="black" cx="295" cy="-66.8" rx="58.53" ry="18"/>
<text text-anchor="middle" x="295" y="-62.6" font-family="Times,serif" font-size="14.00">HelpService</text>
</g>
<!-- HelpService&#45;&gt;ServicesModule -->
<g id="edge14" class="edge">
<title>HelpService&#45;&gt;ServicesModule</title>
<path fill="none" stroke="black" d="M295,-85.02C295,-103.63 295,-129.8 295,-129.8 295,-129.8 731.49,-129.8 731.49,-129.8"/>
<polygon fill="black" stroke="black" points="731.49,-133.3 741.49,-129.8 731.49,-126.3 731.49,-133.3"/>
</g>
<!-- WomboDreamService -->
<g id="node16" class="node">
<title>WomboDreamService</title>
<ellipse fill="#fdb462" stroke="black" cx="121" cy="-66.8" rx="97.26" ry="18"/>
<text text-anchor="middle" x="121" y="-62.6" font-family="Times,serif" font-size="14.00">WomboDreamService</text>
</g>
<!-- WomboDreamService&#45;&gt;ServicesModule -->
<g id="edge15" class="edge">
<title>WomboDreamService&#45;&gt;ServicesModule</title>
<path fill="none" stroke="black" d="M121,-85.02C121,-105.17 121,-134.8 121,-134.8 121,-134.8 731.27,-134.8 731.27,-134.8"/>
<polygon fill="black" stroke="black" points="731.27,-138.3 741.27,-134.8 731.27,-131.3 731.27,-138.3"/>
</g>
</g>
</svg>
