<?xml version="1.0" encoding="UTF-8" standalone="no"?>
<!DOCTYPE svg PUBLIC "-//W3C//DTD SVG 1.1//EN"
 "http://www.w3.org/Graphics/SVG/1.1/DTD/svg11.dtd">
<!-- Generated by graphviz version 5.0.0 (20220707.1540)
 -->
<!-- Title: dependencies Pages: 1 -->
<svg width="629pt" height="247pt"
 viewBox="0.00 0.00 629.00 246.80" xmlns="http://www.w3.org/2000/svg" xmlns:xlink="http://www.w3.org/1999/xlink">
<g id="graph0" class="graph" transform="scale(1 1) rotate(0) translate(4 242.8)">
<title>dependencies</title>
<polygon fill="white" stroke="transparent" points="-4,4 -4,-242.8 625,-242.8 625,4 -4,4"/>
<text text-anchor="middle" x="310.5" y="-8.2" font-family="sans-serif" font-size="14.00">dependencies</text>
<g id="clust1" class="cluster">
<title>cluster_ModelsModule</title>
<polygon fill="none" stroke="black" stroke-dasharray="1,5" points="8,-32.8 8,-230.8 613,-230.8 613,-32.8 8,-32.8"/>
</g>
<g id="clust4" class="cluster">
<title>cluster_ModelsModule_exports</title>
<polygon fill="none" stroke="black" points="38,-170.8 38,-222.8 554,-222.8 554,-170.8 38,-170.8"/>
</g>
<g id="clust6" class="cluster">
<title>cluster_ModelsModule_providers</title>
<polygon fill="none" stroke="black" points="16,-40.8 16,-92.8 605,-92.8 605,-40.8 16,-40.8"/>
</g>
<!-- AiArtModel  -->
<g id="node1" class="node">
<title>AiArtModel </title>
<polygon fill="#fb8072" stroke="black" points="546.21,-214.8 457.79,-214.8 457.79,-178.8 546.21,-178.8 546.21,-214.8"/>
<text text-anchor="middle" x="502" y="-192.6" font-family="Times,serif" font-size="14.00">AiArtModel </text>
</g>
<!-- AiStoryModel  -->
<g id="node2" class="node">
<title>AiStoryModel </title>
<polygon fill="#fb8072" stroke="black" points="439.39,-214.8 338.61,-214.8 338.61,-178.8 439.39,-178.8 439.39,-214.8"/>
<text text-anchor="middle" x="389" y="-192.6" font-family="Times,serif" font-size="14.00">AiStoryModel </text>
</g>
<!-- CogView2Model  -->
<g id="node3" class="node">
<title>CogView2Model </title>
<polygon fill="#fb8072" stroke="black" points="320.21,-214.8 203.79,-214.8 203.79,-178.8 320.21,-178.8 320.21,-214.8"/>
<text text-anchor="middle" x="262" y="-192.6" font-family="Times,serif" font-size="14.00">CogView2Model </text>
</g>
<!-- WomboDreamModel  -->
<g id="node4" class="node">
<title>WomboDreamModel </title>
<polygon fill="#fb8072" stroke="black" points="185.75,-214.8 46.25,-214.8 46.25,-178.8 185.75,-178.8 185.75,-214.8"/>
<text text-anchor="middle" x="116" y="-192.6" font-family="Times,serif" font-size="14.00">WomboDreamModel </text>
</g>
<!-- ModelsModule -->
<g id="node5" class="node">
<title>ModelsModule</title>
<polygon fill="#8dd3c7" stroke="black" points="333.55,-149.8 330.55,-153.8 309.55,-153.8 306.55,-149.8 232.45,-149.8 232.45,-113.8 333.55,-113.8 333.55,-149.8"/>
<text text-anchor="middle" x="283" y="-127.6" font-family="Times,serif" font-size="14.00">ModelsModule</text>
</g>
<!-- ModelsModule&#45;&gt;AiArtModel  -->
<g id="edge1" class="edge">
<title>ModelsModule&#45;&gt;AiArtModel </title>
<path fill="none" stroke="black" stroke-dasharray="5,2" d="M333.61,-137.8C389,-137.8 470.03,-137.8 470.03,-137.8 470.03,-137.8 470.03,-168.78 470.03,-168.78"/>
<polygon fill="black" stroke="black" points="466.53,-168.78 470.03,-178.78 473.53,-168.78 466.53,-168.78"/>
</g>
<!-- ModelsModule&#45;&gt;AiStoryModel  -->
<g id="edge2" class="edge">
<title>ModelsModule&#45;&gt;AiStoryModel </title>
<path fill="none" stroke="black" stroke-dasharray="5,2" d="M327.07,-149.91C327.07,-169.14 327.07,-196.8 327.07,-196.8 327.07,-196.8 328.72,-196.8 328.72,-196.8"/>
<polygon fill="black" stroke="black" points="328.72,-200.3 338.72,-196.8 328.72,-193.3 328.72,-200.3"/>
</g>
<!-- ModelsModule&#45;&gt;CogView2Model  -->
<g id="edge3" class="edge">
<title>ModelsModule&#45;&gt;CogView2Model </title>
<path fill="none" stroke="black" stroke-dasharray="5,2" d="M276.29,-149.91C276.29,-149.91 276.29,-168.79 276.29,-168.79"/>
<polygon fill="black" stroke="black" points="272.79,-168.79 276.29,-178.79 279.79,-168.79 272.79,-168.79"/>
</g>
<!-- ModelsModule&#45;&gt;WomboDreamModel  -->
<g id="edge4" class="edge">
<title>ModelsModule&#45;&gt;WomboDreamModel </title>
<path fill="none" stroke="black" stroke-dasharray="5,2" d="M232.25,-137.8C189.59,-137.8 135.52,-137.8 135.52,-137.8 135.52,-137.8 135.52,-168.78 135.52,-168.78"/>
<polygon fill="black" stroke="black" points="132.02,-168.78 135.52,-178.78 139.02,-168.78 132.02,-168.78"/>
</g>
<!-- AiArtModel -->
<g id="node6" class="node">
<title>AiArtModel</title>
<ellipse fill="#fdb462" stroke="black" cx="538" cy="-66.8" rx="58.56" ry="18"/>
<text text-anchor="middle" x="538" y="-62.6" font-family="Times,serif" font-size="14.00">AiArtModel</text>
</g>
<!-- AiArtModel&#45;&gt;ModelsModule -->
<g id="edge5" class="edge">
<title>AiArtModel&#45;&gt;ModelsModule</title>
<path fill="none" stroke="black" d="M512.79,-83.23C512.79,-100.69 512.79,-125.8 512.79,-125.8 512.79,-125.8 343.71,-125.8 343.71,-125.8"/>
<polygon fill="black" stroke="black" points="343.71,-122.3 333.71,-125.8 343.71,-129.3 343.71,-122.3"/>
</g>
<!-- AiStoryModel -->
<g id="node7" class="node">
<title>AiStoryModel</title>
<ellipse fill="#fdb462" stroke="black" cx="394" cy="-66.8" rx="66.67" ry="18"/>
<text text-anchor="middle" x="394" y="-62.6" font-family="Times,serif" font-size="14.00">AiStoryModel</text>
</g>
<!-- AiStoryModel&#45;&gt;ModelsModule -->
<g id="edge6" class="edge">
<title>AiStoryModel&#45;&gt;ModelsModule</title>
<path fill="none" stroke="black" d="M327.04,-66.8C321.73,-66.8 318.37,-66.8 318.37,-66.8 318.37,-66.8 318.37,-103.69 318.37,-103.69"/>
<polygon fill="black" stroke="black" points="314.87,-103.69 318.37,-113.69 321.87,-103.69 314.87,-103.69"/>
</g>
<!-- AuthModel -->
<g id="node8" class="node">
<title>AuthModel</title>
<ellipse fill="#fdb462" stroke="black" cx="254" cy="-66.8" rx="55.63" ry="18"/>
<text text-anchor="middle" x="254" y="-62.6" font-family="Times,serif" font-size="14.00">AuthModel</text>
</g>
<!-- AuthModel&#45;&gt;ModelsModule -->
<g id="edge7" class="edge">
<title>AuthModel&#45;&gt;ModelsModule</title>
<path fill="none" stroke="black" d="M270.89,-84.22C270.89,-84.22 270.89,-103.42 270.89,-103.42"/>
<polygon fill="black" stroke="black" points="267.39,-103.42 270.89,-113.42 274.39,-103.42 267.39,-103.42"/>
</g>
<!-- CogView2Model -->
<g id="node9" class="node">
<title>CogView2Model</title>
<ellipse fill="#fdb462" stroke="black" cx="102" cy="-66.8" rx="78.19" ry="18"/>
<text text-anchor="middle" x="102" y="-62.6" font-family="Times,serif" font-size="14.00">CogView2Model</text>
</g>
<!-- CogView2Model&#45;&gt;ModelsModule -->
<g id="edge8" class="edge">
<title>CogView2Model&#45;&gt;ModelsModule</title>
<path fill="none" stroke="black" d="M90.95,-84.82C90.95,-102.17 90.95,-125.8 90.95,-125.8 90.95,-125.8 222.29,-125.8 222.29,-125.8"/>
<polygon fill="black" stroke="black" points="222.29,-129.3 232.29,-125.8 222.29,-122.3 222.29,-129.3"/>
</g>
</g>
</svg>
